<svg width="1600" height="520" viewBox="0 0 1600 520" xmlns="http://www.w3.org/2000/svg" role="img" aria-labelledby="title desc">
  <title id="title">OG StarMoney wordmark</title>
  <desc id="desc">Custom black outline and red text stacked wordmark inspired by the Juelz Santana cover lettering style.</desc>
  <defs>
    <linearGradient id="redStroke" x1="0%" y1="0%" x2="0%" y2="100%">
      <stop offset="0%" stop-color="#ffd9d9"/>
      <stop offset="12%" stop-color="#ff7b7b"/>
      <stop offset="48%" stop-color="#e01414"/>
      <stop offset="82%" stop-color="#6b0000"/>
      <stop offset="100%" stop-color="#260000"/>
    </linearGradient>
    <linearGradient id="redInner" x1="0%" y1="0%" x2="0%" y2="100%">
      <stop offset="0%" stop-color="#ffd0d0"/>
      <stop offset="18%" stop-color="#ff7a7a"/>
      <stop offset="52%" stop-color="#ff2020"/>
      <stop offset="100%" stop-color="#7c0000"/>
    </linearGradient>
    <filter id="softShadow" x="-30%" y="-30%" width="160%" height="180%">
      <feOffset dx="0" dy="12" result="off"/>
      <feGaussianBlur in="off" stdDeviation="10" result="blur"/>
      <feColorMatrix in="blur" type="matrix"
        values="0 0 0 0 0
                0 0 0 0 0
                0 0 0 0 0
                0 0 0 .56 0" result="shadow"/>
      <feMerge>
        <feMergeNode in="shadow"/>
        <feMergeNode in="SourceGraphic"/>
      </feMerge>
    </filter>
    <filter id="redGlow" x="-30%" y="-30%" width="160%" height="160%">
      <feGaussianBlur stdDeviation="3.8" result="blur"/>
      <feColorMatrix in="blur" type="matrix"
        values="1 0 0 0 0
                0 .14 0 0 0
                0 0 .14 0 0
                0 0 0 .58 0" result="red"/>
      <feMerge>
        <feMergeNode in="red"/>
        <feMergeNode in="SourceGraphic"/>
      </feMerge>
    </filter>
    <filter id="greenGlow" x="-60%" y="-60%" width="220%" height="220%">
      <feGaussianBlur stdDeviation="14" result="blur"/>
      <feColorMatrix in="blur" type="matrix"
        values="0 .28 0 0 0
                0 1.45 0 0 0
                0 .36 0 0 0
                0 0 0 .82 0" result="green"/>
      <feMerge>
        <feMergeNode in="green"/>
        <feMergeNode in="SourceGraphic"/>
      </feMerge>
    </filter>
    <g id="line-top">
      <path d="M202 0Q162 0 128.0 20.0Q94 40 74.0 74.0Q54 108 54 148V572Q54 613 74.0 646.5Q94 680 128.0 700.0Q162 720 202 720H626Q666 720 699.5 700.0Q733 680 753.5 646.5Q774 613 774 572V148Q774 108 753.5 74.0Q733 40 699.5 20.0Q666 0 626 0ZM209 156H617Q617 156 617.0 156.0Q617 156 617 156V564Q617 564 617.0 564.0Q617 564 617 564H209Q209 564 209.0 564.0Q209 564 209 564V156Q209 156 209.0 156.0Q209 156 209 156Z" transform="translate(-142.562,0) scale(0.178000,-0.178000)"/>
      <path d="M204 0Q164 0 130.0 20.0Q96 40 76.0 74.0Q56 108 56 148V572Q56 613 76.0 646.5Q96 680 130.0 700.0Q164 720 204 720H627Q668 720 701.5 700.0Q735 680 755.5 646.5Q776 613 776 572V504H619V564Q619 564 619.0 564.0Q619 564 619 564H211Q211 564 211.0 564.0Q211 564 211 564V156Q211 156 211.0 156.0Q211 156 211 156H619Q619 156 619.0 156.0Q619 156 619 156V264H463V420H776V148Q776 108 755.5 74.0Q735 40 701.5 20.0Q668 0 627 0Z" transform="translate(-5.178,0) scale(0.178000,-0.178000)"/>
    </g>
    <g id="line-bottom">
      <path d="M202 0Q162 0 128.0 20.0Q94 40 74.0 74.0Q54 108 54 148V215H209V156Q209 156 209.0 156.0Q209 156 209 156H617Q617 156 617.0 156.0Q617 156 617 156V282Q617 282 617.0 282.0Q617 282 617 282H202Q162 282 128.0 302.0Q94 322 74.0 355.5Q54 389 54 430V572Q54 613 74.0 646.5Q94 680 128.0 700.0Q162 720 202 720H626Q666 720 699.5 700.0Q733 680 753.5 646.5Q774 613 774 572V505H617V564Q617 564 617.0 564.0Q617 564 617 564H209Q209 564 209.0 564.0Q209 564 209 564V438Q209 438 209.0 438.0Q209 438 209 438H626Q666 438 699.5 418.0Q733 398 753.5 364.5Q774 331 774 290V148Q774 108 753.5 74.0Q733 40 699.5 20.0Q666 0 626 0Z" transform="translate(-693.984,0) scale(0.196000,-0.196000)"/>
      <path d="M302 0V564H20V720H740V564H458V0Z" transform="translate(-539.696,0) scale(0.196000,-0.196000)"/>
      <path d="M58 0V572Q58 613 78.0 646.5Q98 680 132.0 700.0Q166 720 206 720H629Q670 720 703.5 700.0Q737 680 757.5 646.5Q778 613 778 572V0H621V232H213V0H58ZM213 388H621V564Q621 564 621.0 564.0Q621 564 621 564H213Q213 564 213.0 564.0Q213 564 213 564V388Z" transform="translate(-398.932,0) scale(0.196000,-0.196000)"/>
      <path d="M615 0 406 249H609L775 53V0ZM56 0V719H627Q668 719 701.5 699.0Q735 679 755.5 645.0Q776 611 776 571V385Q776 345 755.5 311.0Q735 277 701.5 257.0Q668 237 627 237L211 236V0ZM211 393H619Q619 393 619.0 393.0Q619 393 619 393V564Q619 564 619.0 564.0Q619 564 619 564H211Q211 564 211.0 564.0Q211 564 211 564V393Q211 393 211.0 393.0Q211 393 211 393Z" transform="translate(-243.076,0) scale(0.196000,-0.196000)"/>
      <path d="M56 0V720H216L460 429L703 720H864V0H708V483L460 187L211 482V0Z" transform="translate(-89.376,0) scale(0.196000,-0.196000)"/>
      <path d="M202 0Q162 0 128.0 20.0Q94 40 74.0 74.0Q54 108 54 148V572Q54 613 74.0 646.5Q94 680 128.0 700.0Q162 720 202 720H626Q666 720 699.5 700.0Q733 680 753.5 646.5Q774 613 774 572V148Q774 108 753.5 74.0Q733 40 699.5 20.0Q666 0 626 0ZM209 156H617Q617 156 617.0 156.0Q617 156 617 156V564Q617 564 617.0 564.0Q617 564 617 564H209Q209 564 209.0 564.0Q209 564 209 564V156Q209 156 209.0 156.0Q209 156 209 156Z" transform="translate(84.512,0) scale(0.196000,-0.196000)"/>
      <path d="M56 0V720H216L619 240V720H776V0H616L211 482V0Z" transform="translate(238.800,0) scale(0.196000,-0.196000)"/>
      <path d="M58 0V720H723V564H215V438H624V282H215V156H723V0Z" transform="translate(393.872,0) scale(0.196000,-0.196000)"/>
      <path d="M324 0V269L-9 720H176L402 436L627 720H814L480 268V0Z" transform="translate(536.008,0) scale(0.196000,-0.196000)"/>
    </g>
  </defs>

  <g filter="url(#softShadow)">
    <g filter="url(#greenGlow)" opacity="1">
      <g transform="translate(800 182) skewX(-10) scale(1.03 1.06)">
        <use href="#line-top" fill="none" stroke="#79ff59" stroke-width="14" stroke-linejoin="bevel" opacity="0.88"/>
      </g>
      <g transform="translate(800 358) skewX(-10) scale(1.0 1.08)">
        <use href="#line-bottom" fill="none" stroke="#79ff59" stroke-width="16" stroke-linejoin="bevel" opacity="0.92"/>
      </g>
    </g>
    <g opacity="0.5">
      <g transform="translate(800 182) skewX(-10) scale(1.03 1.06)">
        <use href="#line-top" fill="none" stroke="#b6ff8d" stroke-width="4.6" stroke-linejoin="bevel"/>
      </g>
      <g transform="translate(800 358) skewX(-10) scale(1.0 1.08)">
        <use href="#line-bottom" fill="none" stroke="#b6ff8d" stroke-width="5.2" stroke-linejoin="bevel"/>
      </g>
    </g>
    <g transform="translate(800 182) skewX(-10) scale(1.03 1.06)">
      <use href="#line-top" fill="#240202" stroke="#000000" stroke-width="26" stroke-linejoin="bevel" opacity="0.24"/>
      <use href="#line-top" fill="url(#redInner)" stroke="#060606" stroke-width="15" stroke-linejoin="bevel" paint-order="stroke fill" filter="url(#redGlow)"/>
      <use href="#line-top" fill="none" stroke="#ffd6d6" stroke-width="4.5" stroke-linejoin="bevel" opacity="0.82"/>
    </g>

    <g transform="translate(800 358) skewX(-10) scale(1.0 1.08)">
      <use href="#line-bottom" fill="#240202" stroke="#000000" stroke-width="28" stroke-linejoin="bevel" opacity="0.26"/>
      <use href="#line-bottom" fill="url(#redInner)" stroke="#060606" stroke-width="17" stroke-linejoin="bevel" paint-order="stroke fill" filter="url(#redGlow)"/>
      <use href="#line-bottom" fill="none" stroke="#ffd6d6" stroke-width="5.2" stroke-linejoin="bevel" opacity="0.82"/>
    </g>

    <g opacity="0.42">
      <path d="M350 230H1250" stroke="url(#redInner)" stroke-width="5" stroke-linecap="square"/>
      <path d="M284 248H1316" stroke="#230000" stroke-width="8" stroke-linecap="square"/>
    </g>
  </g>
</svg>
